<?xml version="1.0" encoding="UTF-8"?>
<svg width="53px" height="75px" viewBox="0 0 53 75" version="1.1" xmlns="http://www.w3.org/2000/svg" xmlns:xlink="http://www.w3.org/1999/xlink">
    <title>kokopelli</title>
    <g id="Template---App-Icons" stroke="none" stroke-width="1" fill="none" fill-rule="evenodd">
        <g id="Artboard" transform="translate(-389, -176)" fill="#FF9F0A" fill-rule="nonzero">
            <path d="M414.901933,250.780375 C414.753715,250.490282 414.847238,250.269967 414.992337,250.050928 C415.666599,249.033058 416.523841,248.176355 417.365907,247.307191 C417.637024,247.027355 417.721329,246.75109 417.581512,246.361987 C417.073972,244.9495 416.610042,243.521058 416.101194,242.109072 C415.686986,240.9597 415.346254,239.797702 415.395845,238.562143 C415.455337,237.079956 415.964383,235.750465 416.835123,234.561921 C417.235553,234.015333 417.573273,233.432222 417.880584,232.830044 C418.134964,232.331581 418.093523,232.072819 417.656889,231.718407 C416.205069,230.539949 414.743617,229.373567 413.287658,228.200284 C413.007563,227.974569 412.732936,227.930902 412.396139,228.104129 C410.681257,228.986144 408.952317,229.840437 407.240296,230.727975 C405.752025,231.499524 404.868162,232.74786 404.531681,234.391691 C404.275972,235.640918 404.022304,236.890958 403.796773,238.145942 C403.653498,238.943216 403.203989,239.406239 402.444265,239.616407 C400.412951,240.178343 398.357495,240.434158 396.255702,240.148142 C395.574895,240.0555 394.981323,239.803487 394.619727,239.171741 C394.401537,238.790539 394.493457,238.494367 394.89105,238.314487 C395.12763,238.207451 395.379417,238.128647 395.63085,238.062055 C396.506865,237.830037 397.388735,237.620125 398.26267,237.380614 C399.250176,237.109974 399.883754,236.476823 400.069092,235.446029 C400.263624,234.364111 400.465208,233.281693 400.60344,232.191723 C400.772032,230.86236 401.390962,229.849399 402.482127,229.094837 C404.092255,227.981401 405.735884,226.923753 407.449371,225.979981 C409.138673,225.049529 410.839088,224.147023 412.452623,223.075542 C416.461768,220.413235 419.924702,217.190109 422.696047,213.225069 C423.520433,212.045599 424.171918,210.788347 424.460754,209.363504 C424.510744,209.116897 424.637858,208.828143 424.382136,208.624884 C424.139563,208.432079 423.905001,208.624238 423.686117,208.717581 C421.17197,209.789753 418.576778,210.235457 415.860619,209.765755 C413.235976,209.311881 410.896393,208.208549 408.788973,206.586773 C408.454195,206.329142 408.113931,206.218893 407.716495,206.382189 C407.463934,206.485958 407.214159,206.599146 406.971585,206.724721 C405.196433,207.643691 403.554146,208.769037 401.993221,210.016912 C399.703224,211.847641 397.589051,213.881789 395.403775,215.833639 C395.219501,215.998226 395.04779,216.177634 394.814495,216.294238 C394.657259,216.179819 394.574946,216.024282 394.479145,215.881563 C393.106972,213.83733 391.740476,211.789194 390.361103,209.749924 C389.913911,209.088792 389.512357,208.394929 389,207.779436 C389,207.699197 389,207.61896 389.024886,207.517329 C389.204695,207.559988 389.344569,207.478872 389.483913,207.439585 C391.69521,206.816112 393.908648,206.199984 396.114737,205.558185 C399.525252,204.565994 402.961527,203.656581 406.300786,202.429913 C408.524529,201.613032 410.642332,200.567946 412.680198,199.354019 C413.129886,199.086143 413.373426,198.71893 413.499213,198.210657 C413.804287,196.977935 413.906214,195.719007 414.022786,194.462569 C414.199296,192.560068 414.677378,190.748453 415.515277,189.0318 C416.634805,186.738163 418.168801,184.736515 419.849828,182.850334 C422.274017,180.130293 424.777332,177.495398 428.300523,176.1858 C428.750679,176.03723 428.91777,176.031057 429.241554,176.007348 C429.45741,175.991543 429.683381,176.001234 429.919467,176.036422 C430.052948,176.069359 430.142617,176.096656 430.188473,176.118311 C430.513785,176.271939 431.209025,177.15819 430.815385,177.814689 C430.725663,177.964328 430.613634,178.100249 430.513785,178.243836 C429.77397,179.307711 428.734881,180.055836 427.77388,180.886184 C426.225151,182.224358 424.687883,183.574266 423.429987,185.209309 C423.360361,185.29981 423.226069,185.368754 423.281898,185.5322 C423.316838,185.535444 423.360636,185.554024 423.384719,185.539452 C423.576111,185.423643 423.768263,185.30812 423.951855,185.180343 C425.845767,183.862209 427.762574,182.579477 429.87047,181.628444 C432.221309,180.567799 434.636636,179.749577 437.26356,179.846476 C437.955413,179.871997 438.627499,180.011654 439.203841,180.418834 C440.108393,181.057886 440.054174,182.205414 439.103396,182.762948 C438.629789,183.040673 438.12239,183.248246 437.605929,183.430782 C436.010075,183.994808 434.342441,184.29405 432.723992,184.777537 C430.45388,185.455697 428.366695,186.461746 426.613055,188.098626 C426.512453,188.192531 426.363971,188.264251 426.374176,188.492355 C426.835034,188.391352 427.226914,188.17594 427.634163,188.011601 C430.07497,187.026656 432.600884,186.450603 435.230051,186.300105 C436.313187,186.238105 437.389076,186.271531 438.468947,186.311035 C439.579433,186.351659 441.009599,186.896225 441.500129,187.318796 C441.990659,187.741366 442.002569,188.249892 441.999744,188.688799 C441.997298,189.068854 441.829345,189.496212 441.481777,189.782909 C441.13421,190.069607 440.306203,190.45074 439.621786,190.399254 C437.341775,190.227738 435.061759,190.097071 432.774843,190.272013 C431.241323,190.389324 429.753142,190.699683 428.324105,191.278632 C428.194069,191.331316 428.029619,191.348918 427.964662,191.519951 C428.086309,191.657277 428.2438,191.607004 428.384282,191.603365 C429.253841,191.580838 430.120632,191.591209 430.991124,191.639947 C433.49037,191.779882 435.902793,192.315902 438.257533,193.148597 C439.136472,193.459412 439.918398,193.948787 440.62946,194.541513 C441.268396,195.074113 441.415323,195.792191 441.22344,196.586311 C441.06598,197.237956 440.719701,197.732189 440.03995,197.904189 C439.595309,198.016697 439.154902,197.957718 438.718577,197.826356 C438.024607,197.617429 437.370828,197.316581 436.732324,196.976746 C433.937586,195.489279 430.962367,194.709213 427.800553,194.663179 C427.680672,194.661433 427.553795,194.643065 427.464483,194.771375 C427.602288,194.901795 427.781591,194.916177 427.942482,194.966602 C428.464983,195.130359 428.977647,195.319291 429.480553,195.536457 C431.440653,196.382873 433.164267,197.604335 434.830518,198.92597 C435.415089,199.389642 435.793972,199.961041 436.008186,200.661226 C436.23509,201.402866 435.941504,202.203306 435.278058,202.672997 C434.706672,203.077511 434.207244,203.037796 433.504948,202.512889 C432.336183,201.639338 431.221282,200.697903 430.106759,199.755922 C429.045708,198.85914 427.935923,198.036442 426.62653,197.53604 C426.12171,197.343118 425.605475,197.222917 425.060209,197.351729 C424.579923,197.46519 424.485408,197.719322 424.81181,198.083261 C425.078359,198.380461 425.363346,198.661165 425.645579,198.943674 C427.278343,200.578044 428.971221,202.149554 430.715764,203.658868 C433.19734,205.80583 434.279578,208.564644 434.355295,211.783271 C434.407074,213.984481 433.994809,216.117208 433.278541,218.191211 C431.565564,223.151247 428.687085,227.388891 425.274776,231.292578 C424.042672,232.702104 422.777765,234.080088 421.624669,235.561402 C420.123531,237.489826 419.715598,239.51826 420.639917,241.847784 C421.335476,243.600781 421.856962,245.423569 422.47727,247.20774 C422.654598,247.717781 422.571328,248.109938 422.147067,248.434204 C421.850262,248.661043 421.562703,248.900545 421.261211,249.120737 C420.320658,249.80766 418.585469,250.622211 418.233027,250.806959 C417.880584,250.991706 417.129104,250.994944 416.58064,250.991706 C416.022696,250.988412 415.05015,251.070468 414.901933,250.780375 Z M416.247217,207.023746 C416.91414,207.133801 417.587527,207.140099 418.258214,207.106939 C419.616301,207.039797 420.845266,206.612795 421.867245,205.681339 C422.5869,205.025428 422.59432,204.434545 421.878031,203.774607 C420.626372,202.62142 419.087508,202.261701 417.455953,202.309391 C416.297298,202.34326 415.169069,202.646248 414.072998,203.033323 C413.287493,203.310722 412.469603,203.513081 411.741832,203.932509 C411.128605,204.285926 411.11934,204.729174 411.70822,205.106604 C413.092314,205.993708 414.546851,206.720742 416.247217,207.023746 M418.944844,194.393586 C419.455952,193.895919 419.934999,193.370086 420.300127,192.745962 C420.374411,192.618982 420.492297,192.479869 420.368246,192.333411 C420.252804,192.197115 420.107831,192.296499 419.996045,192.358783 C418.863978,192.989547 417.986905,193.891614 417.340425,195.032209 C417.274761,195.148062 417.179935,195.29972 417.292721,195.417001 C417.423522,195.553018 417.573479,195.428621 417.695881,195.360031 C418.141938,195.110081 418.528911,194.775921 418.944844,194.393586 Z" id="kokopelli"></path>
        </g>
    </g>
</svg>