<?xml version="1.0" encoding="UTF-8"?>
<svg width="53px" height="75px" viewBox="0 0 53 75" version="1.1" xmlns="http://www.w3.org/2000/svg" xmlns:xlink="http://www.w3.org/1999/xlink">
    <title>kokopelli</title>
    <defs>
        <linearGradient x1="50%" y1="0%" x2="50%" y2="100%" id="linearGradient-1">
            <stop stop-color="#FFFFFF" offset="0%"></stop>
            <stop stop-color="#FFFFFF" stop-opacity="0.62890625" offset="100%"></stop>
        </linearGradient>
    </defs>
    <g id="Template---App-Icons" stroke="none" stroke-width="1" fill="none" fill-rule="evenodd">
        <g id="Artboard" transform="translate(-1117, -735)" fill="url(#linearGradient-1)" fill-rule="nonzero">
            <path d="M1142.90193,809.780375 C1142.75372,809.490282 1142.84724,809.269967 1142.99234,809.050928 C1143.6666,808.033058 1144.52384,807.176355 1145.36591,806.307191 C1145.63702,806.027355 1145.72133,805.75109 1145.58151,805.361987 C1145.07397,803.9495 1144.61004,802.521058 1144.10119,801.109072 C1143.68699,799.9597 1143.34625,798.797702 1143.39584,797.562143 C1143.45534,796.079956 1143.96438,794.750465 1144.83512,793.561921 C1145.23555,793.015333 1145.57327,792.432222 1145.88058,791.830044 C1146.13496,791.331581 1146.09352,791.072819 1145.65689,790.718407 C1144.20507,789.539949 1142.74362,788.373567 1141.28766,787.200284 C1141.00756,786.974569 1140.73294,786.930902 1140.39614,787.104129 C1138.68126,787.986144 1136.95232,788.840437 1135.2403,789.727975 C1133.75202,790.499524 1132.86816,791.74786 1132.53168,793.391691 C1132.27597,794.640918 1132.0223,795.890958 1131.79677,797.145942 C1131.6535,797.943216 1131.20399,798.406239 1130.44426,798.616407 C1128.41295,799.178343 1126.35749,799.434158 1124.2557,799.148142 C1123.57489,799.0555 1122.98132,798.803487 1122.61973,798.171741 C1122.40154,797.790539 1122.49346,797.494367 1122.89105,797.314487 C1123.12763,797.207451 1123.37942,797.128647 1123.63085,797.062055 C1124.50687,796.830037 1125.38874,796.620125 1126.26267,796.380614 C1127.25018,796.109974 1127.88375,795.476823 1128.06909,794.446029 C1128.26362,793.364111 1128.46521,792.281693 1128.60344,791.191723 C1128.77203,789.86236 1129.39096,788.849399 1130.48213,788.094837 C1132.09226,786.981401 1133.73588,785.923753 1135.44937,784.979981 C1137.13867,784.049529 1138.83909,783.147023 1140.45262,782.075542 C1144.46177,779.413235 1147.9247,776.190109 1150.69605,772.225069 C1151.52043,771.045599 1152.17192,769.788347 1152.46075,768.363504 C1152.51074,768.116897 1152.63786,767.828143 1152.38214,767.624884 C1152.13956,767.432079 1151.905,767.624238 1151.68612,767.717581 C1149.17197,768.789753 1146.57678,769.235457 1143.86062,768.765755 C1141.23598,768.311881 1138.89639,767.208549 1136.78897,765.586773 C1136.4542,765.329142 1136.11393,765.218893 1135.7165,765.382189 C1135.46393,765.485958 1135.21416,765.599146 1134.97159,765.724721 C1133.19643,766.643691 1131.55415,767.769037 1129.99322,769.016912 C1127.70322,770.847641 1125.58905,772.881789 1123.40378,774.833639 C1123.2195,774.998226 1123.04779,775.177634 1122.81449,775.294238 C1122.65726,775.179819 1122.57495,775.024282 1122.47914,774.881563 C1121.10697,772.83733 1119.74048,770.789194 1118.3611,768.749924 C1117.91391,768.088792 1117.51236,767.394929 1117,766.779436 C1117,766.699197 1117,766.61896 1117.02489,766.517329 C1117.2047,766.559988 1117.34457,766.478872 1117.48391,766.439585 C1119.69521,765.816112 1121.90865,765.199984 1124.11474,764.558185 C1127.52525,763.565994 1130.96153,762.656581 1134.30079,761.429913 C1136.52453,760.613032 1138.64233,759.567946 1140.6802,758.354019 C1141.12989,758.086143 1141.37343,757.71893 1141.49921,757.210657 C1141.80429,755.977935 1141.90621,754.719007 1142.02279,753.462569 C1142.1993,751.560068 1142.67738,749.748453 1143.51528,748.0318 C1144.63481,745.738163 1146.1688,743.736515 1147.84983,741.850334 C1150.27402,739.130293 1152.77733,736.495398 1156.30052,735.1858 C1156.75068,735.03723 1156.91777,735.031057 1157.24155,735.007348 C1157.45741,734.991543 1157.68338,735.001234 1157.91947,735.036422 C1158.05295,735.069359 1158.14262,735.096656 1158.18847,735.118311 C1158.51378,735.271939 1159.20902,736.15819 1158.81539,736.814689 C1158.72566,736.964328 1158.61363,737.100249 1158.51378,737.243836 C1157.77397,738.307711 1156.73488,739.055836 1155.77388,739.886184 C1154.22515,741.224358 1152.68788,742.574266 1151.42999,744.209309 C1151.36036,744.29981 1151.22607,744.368754 1151.2819,744.5322 C1151.31684,744.535444 1151.36064,744.554024 1151.38472,744.539452 C1151.57611,744.423643 1151.76826,744.30812 1151.95186,744.180343 C1153.84577,742.862209 1155.76257,741.579477 1157.87047,740.628444 C1160.22131,739.567799 1162.63664,738.749577 1165.26356,738.846476 C1165.95541,738.871997 1166.6275,739.011654 1167.20384,739.418834 C1168.10839,740.057886 1168.05417,741.205414 1167.1034,741.762948 C1166.62979,742.040673 1166.12239,742.248246 1165.60593,742.430782 C1164.01007,742.994808 1162.34244,743.29405 1160.72399,743.777537 C1158.45388,744.455697 1156.36669,745.461746 1154.61306,747.098626 C1154.51245,747.192531 1154.36397,747.264251 1154.37418,747.492355 C1154.83503,747.391352 1155.22691,747.17594 1155.63416,747.011601 C1158.07497,746.026656 1160.60088,745.450603 1163.23005,745.300105 C1164.31319,745.238105 1165.38908,745.271531 1166.46895,745.311035 C1167.57943,745.351659 1169.0096,745.896225 1169.50013,746.318796 C1169.99066,746.741366 1170.00257,747.249892 1169.99974,747.688799 C1169.9973,748.068854 1169.82934,748.496212 1169.48178,748.782909 C1169.13421,749.069607 1168.3062,749.45074 1167.62179,749.399254 C1165.34177,749.227738 1163.06176,749.097071 1160.77484,749.272013 C1159.24132,749.389324 1157.75314,749.699683 1156.3241,750.278632 C1156.19407,750.331316 1156.02962,750.348918 1155.96466,750.519951 C1156.08631,750.657277 1156.2438,750.607004 1156.38428,750.603365 C1157.25384,750.580838 1158.12063,750.591209 1158.99112,750.639947 C1161.49037,750.779882 1163.90279,751.315902 1166.25753,752.148597 C1167.13647,752.459412 1167.9184,752.948787 1168.62946,753.541513 C1169.2684,754.074113 1169.41532,754.792191 1169.22344,755.586311 C1169.06598,756.237956 1168.7197,756.732189 1168.03995,756.904189 C1167.59531,757.016697 1167.1549,756.957718 1166.71858,756.826356 C1166.02461,756.617429 1165.37083,756.316581 1164.73232,755.976746 C1161.93759,754.489279 1158.96237,753.709213 1155.80055,753.663179 C1155.68067,753.661433 1155.55379,753.643065 1155.46448,753.771375 C1155.60229,753.901795 1155.78159,753.916177 1155.94248,753.966602 C1156.46498,754.130359 1156.97765,754.319291 1157.48055,754.536457 C1159.44065,755.382873 1161.16427,756.604335 1162.83052,757.92597 C1163.41509,758.389642 1163.79397,758.961041 1164.00819,759.661226 C1164.23509,760.402866 1163.9415,761.203306 1163.27806,761.672997 C1162.70667,762.077511 1162.20724,762.037796 1161.50495,761.512889 C1160.33618,760.639338 1159.22128,759.697903 1158.10676,758.755922 C1157.04571,757.85914 1155.93592,757.036442 1154.62653,756.53604 C1154.12171,756.343118 1153.60547,756.222917 1153.06021,756.351729 C1152.57992,756.46519 1152.48541,756.719322 1152.81181,757.083261 C1153.07836,757.380461 1153.36335,757.661165 1153.64558,757.943674 C1155.27834,759.578044 1156.97122,761.149554 1158.71576,762.658868 C1161.19734,764.80583 1162.27958,767.564644 1162.35529,770.783271 C1162.40707,772.984481 1161.99481,775.117208 1161.27854,777.191211 C1159.56556,782.151247 1156.68708,786.388891 1153.27478,790.292578 C1152.04267,791.702104 1150.77776,793.080088 1149.62467,794.561402 C1148.12353,796.489826 1147.7156,798.51826 1148.63992,800.847784 C1149.33548,802.600781 1149.85696,804.423569 1150.47727,806.20774 C1150.6546,806.717781 1150.57133,807.109938 1150.14707,807.434204 C1149.85026,807.661043 1149.5627,807.900545 1149.26121,808.120737 C1148.32066,808.80766 1146.58547,809.622211 1146.23303,809.806959 C1145.88058,809.991706 1145.1291,809.994944 1144.58064,809.991706 C1144.0227,809.988412 1143.05015,810.070468 1142.90193,809.780375 Z M1144.24722,766.023746 C1144.91414,766.133801 1145.58753,766.140099 1146.25821,766.106939 C1147.6163,766.039797 1148.84527,765.612795 1149.86724,764.681339 C1150.5869,764.025428 1150.59432,763.434545 1149.87803,762.774607 C1148.62637,761.62142 1147.08751,761.261701 1145.45595,761.309391 C1144.2973,761.34326 1143.16907,761.646248 1142.073,762.033323 C1141.28749,762.310722 1140.4696,762.513081 1139.74183,762.932509 C1139.1286,763.285926 1139.11934,763.729174 1139.70822,764.106604 C1141.09231,764.993708 1142.54685,765.720742 1144.24722,766.023746 M1146.94484,753.393586 C1147.45595,752.895919 1147.935,752.370086 1148.30013,751.745962 C1148.37441,751.618982 1148.4923,751.479869 1148.36825,751.333411 C1148.2528,751.197115 1148.10783,751.296499 1147.99605,751.358783 C1146.86398,751.989547 1145.98691,752.891614 1145.34042,754.032209 C1145.27476,754.148062 1145.17994,754.29972 1145.29272,754.417001 C1145.42352,754.553018 1145.57348,754.428621 1145.69588,754.360031 C1146.14194,754.110081 1146.52891,753.775921 1146.94484,753.393586 Z" id="kokopelli"></path>
        </g>
    </g>
</svg>